<svg xmlns="http://www.w3.org/2000/svg" width="200" height="200" viewBox="0 0 200 200">
  <defs>
    <linearGradient id="webGradient" x1="0%" y1="0%" x2="100%" y2="100%">
      <stop offset="0%" style="stop-color:#3b82f6;stop-opacity:1" />
      <stop offset="100%" style="stop-color:#1e40af;stop-opacity:1" />
    </linearGradient>
  </defs>
  
  <!-- Monitor/Pantalla -->
  <rect x="40" y="60" width="120" height="80" rx="8" ry="8" 
        fill="url(#webGradient)" 
        stroke="#1e293b" 
        stroke-width="3"/>
  
  <!-- Pantalla interna -->
  <rect x="50" y="70" width="100" height="60" rx="4" ry="4" 
        fill="#f8fafc"/>
  
  <!-- Líneas de código -->
  <rect x="55" y="80" width="30" height="3" fill="#ef4444"/>
  <rect x="90" y="80" width="25" height="3" fill="#22c55e"/>
  <rect x="55" y="90" width="45" height="3" fill="#3b82f6"/>
  <rect x="105" y="90" width="20" height="3" fill="#f59e0b"/>
  <rect x="55" y="100" width="35" height="3" fill="#8b5cf6"/>
  <rect x="95" y="100" width="30" height="3" fill="#06b6d4"/>
  <rect x="55" y="110" width="40" height="3" fill="#ef4444"/>
  <rect x="100" y="110" width="25" height="3" fill="#22c55e"/>
  
  <!-- Base del monitor -->
  <rect x="90" y="140" width="20" height="15" fill="#64748b"/>
  <rect x="70" y="155" width="60" height="8" rx="4" ry="4" fill="#64748b"/>
  
  <!-- Elementos de UI -->
  <circle cx="65" cy="80" r="2" fill="#ef4444"/>
  <circle cx="75" cy="80" r="2" fill="#f59e0b"/>
  <circle cx="85" cy="80" r="2" fill="#22c55e"/>
  
  <!-- Código/Tags -->
  <text x="55" y="125" font-family="monospace" font-size="8" fill="#64748b">&lt;/&gt;</text>
  <text x="125" y="125" font-family="monospace" font-size="8" fill="#64748b">{}</text>
</svg>
